<svg width="32" height="32" viewBox="0 0 32 32" fill="none" xmlns="http://www.w3.org/2000/svg">
<path d="M29.4108 9.26001C29.2514 8.66805 28.9394 8.12832 28.5059 7.69485C28.0724 7.26137 27.5327 6.94935 26.9408 6.79001C24.7608 6.20001 16.0008 6.20001 16.0008 6.20001C16.0008 6.20001 7.24075 6.20001 5.06075 6.79001C4.46879 6.94935 3.92906 7.26137 3.49559 7.69485C3.06211 8.12832 2.75009 8.66805 2.59075 9.26001C2.1837 11.4833 1.98617 13.7398 2.00075 16C1.98617 18.2602 2.1837 20.5167 2.59075 22.74C2.75009 23.332 3.06211 23.8717 3.49559 24.3052C3.92906 24.7387 4.46879 25.0507 5.06075 25.21C7.24075 25.8 16.0008 25.8 16.0008 25.8C16.0008 25.8 24.7608 25.8 26.9408 25.21C27.5327 25.0507 28.0724 24.7387 28.5059 24.3052C28.9394 23.8717 29.2514 23.332 29.4108 22.74C29.8178 20.5167 30.0153 18.2602 30.0008 16C30.0153 13.7398 29.8178 11.4833 29.4108 9.26001ZM13.2008 20.2V11.8L20.4708 16L13.2008 20.2Z" fill="white"/>
</svg>
