<svg width="22" height="22" fill="none" xmlns="http://www.w3.org/2000/svg"><path d="m9.72 15.217 6.462-6.463-1.284-1.283-5.179 5.18-2.612-2.613-1.284 1.283 3.896 3.896Zm1.283 4.95a8.92 8.92 0 0 1-3.575-.723 9.25 9.25 0 0 1-2.91-1.958 9.252 9.252 0 0 1-1.96-2.91A8.922 8.922 0 0 1 1.836 11c0-1.268.24-2.46.722-3.575a9.25 9.25 0 0 1 1.96-2.91 9.264 9.264 0 0 1 2.91-1.96 8.931 8.931 0 0 1 3.575-.722c1.268 0 2.46.241 3.575.722a9.263 9.263 0 0 1 2.91 1.96 9.25 9.25 0 0 1 1.959 2.91A8.92 8.92 0 0 1 20.169 11a8.92 8.92 0 0 1-.722 3.575 9.25 9.25 0 0 1-1.959 2.91 9.25 9.25 0 0 1-2.91 1.96 8.92 8.92 0 0 1-3.575.722Z" fill="#9885F7"/></svg>