<svg width="21" height="21" viewBox="0 0 21 21" fill="none" xmlns="http://www.w3.org/2000/svg">
<path d="M18.9016 7.74166V15.225C18.9016 15.9212 18.625 16.5889 18.1327 17.0812C17.6404 17.5735 16.9728 17.85 16.2766 17.85H4.72656C4.03037 17.85 3.36269 17.5735 2.87041 17.0812C2.37812 16.5889 2.10156 15.9212 2.10156 15.225V7.74166L10.2349 12.5276C10.3157 12.5752 10.4078 12.6003 10.5016 12.6003C10.5954 12.6003 10.6875 12.5752 10.7683 12.5276L18.9016 7.74166ZM16.2766 4.20001C16.9225 4.19991 17.5457 4.43795 18.0271 4.86859C18.5085 5.29923 18.8142 5.89224 18.8858 6.53416L10.5016 11.466L2.11731 6.53416C2.18888 5.89224 2.4946 5.29923 2.976 4.86859C3.45739 4.43795 4.08066 4.19991 4.72656 4.20001H16.2766Z" fill="#764AF1"/>
</svg>
