<svg width="48" height="48" viewBox="0 0 48 48" fill="none" xmlns="http://www.w3.org/2000/svg">
<path fill-rule="evenodd" clip-rule="evenodd" d="M35.0864 9.4081C34.4831 7.95216 33.5989 6.62931 32.4844 5.5151L33.8994 4.1001C35.1994 5.40012 36.2306 6.94347 36.9342 8.64203C37.6378 10.3406 37.9999 12.1611 37.9999 13.9996C37.9999 15.8381 37.6378 17.6586 36.9342 19.3572C36.2306 21.0557 35.1994 22.5991 33.8994 23.8991L32.4844 22.4841C34.1626 20.806 35.3056 18.6679 35.7687 16.3402C36.2319 14.0126 35.9944 11.5998 35.0864 9.4071V9.4081Z" fill="white"/>
<path fill-rule="evenodd" clip-rule="evenodd" d="M29.5433 11.704C29.242 10.976 28.8003 10.3144 28.2433 9.75702L29.6573 8.34302C30.4002 9.08589 30.9895 9.96782 31.3916 10.9385C31.7936 11.9091 32.0006 12.9494 32.0006 14C32.0006 15.0506 31.7936 16.0909 31.3916 17.0616C30.9895 18.0322 30.4002 18.9141 29.6573 19.657L28.2433 18.243C29.0824 17.4038 29.6537 16.3346 29.8851 15.1707C30.1165 14.0068 29.9976 12.8003 29.5433 11.704ZM19.7573 9.75702C19.2 10.3142 18.758 10.9757 18.4564 11.7037C18.1548 12.4317 17.9996 13.212 17.9996 14C17.9996 14.788 18.1548 15.5683 18.4564 16.2964C18.758 17.0244 19.2 17.6859 19.7573 18.243L18.3433 19.657C17.6004 18.9141 17.0111 18.0322 16.609 17.0616C16.2069 16.0909 16 15.0506 16 14C16 12.9494 16.2069 11.9091 16.609 10.9385C17.0111 9.96782 17.6004 9.08589 18.3433 8.34302L19.7573 9.75702Z" fill="white"/>
<path fill-rule="evenodd" clip-rule="evenodd" d="M15.516 5.5151C13.2657 7.76551 12.0016 10.8176 12.0016 14.0001C12.0016 17.1826 13.2657 20.2347 15.516 22.4851L14.101 23.9001C12.8008 22.6001 11.7695 21.0566 11.0658 19.358C10.3622 17.6593 10 15.8387 10 14.0001C10 12.1615 10.3622 10.3409 11.0658 8.6422C11.7695 6.94355 12.8008 5.40014 14.101 4.1001L15.516 5.5151Z" fill="white"/>
<path d="M26 14C26 14.5304 25.7893 15.0391 25.4142 15.4142C25.0391 15.7893 24.5304 16 24 16C23.4696 16 22.9609 15.7893 22.5858 15.4142C22.2107 15.0391 22 14.5304 22 14C22 13.4696 22.2107 12.9609 22.5858 12.5858C22.9609 12.2107 23.4696 12 24 12C24.5304 12 25.0391 12.2107 25.4142 12.5858C25.7893 12.9609 26 13.4696 26 14Z" fill="white"/>
<path fill-rule="evenodd" clip-rule="evenodd" d="M35 27H13C12.7348 27 12.4804 27.1054 12.2929 27.2929C12.1054 27.4804 12 27.7348 12 28V41C12 41.2652 12.1054 41.5196 12.2929 41.7071C12.4804 41.8946 12.7348 42 13 42H35C35.2652 42 35.5196 41.8946 35.7071 41.7071C35.8946 41.5196 36 41.2652 36 41V28C36 27.7348 35.8946 27.4804 35.7071 27.2929C35.5196 27.1054 35.2652 27 35 27ZM13 25C12.2044 25 11.4413 25.3161 10.8787 25.8787C10.3161 26.4413 10 27.2044 10 28V41C10 41.7956 10.3161 42.5587 10.8787 43.1213C11.4413 43.6839 12.2044 44 13 44H35C35.7956 44 36.5587 43.6839 37.1213 43.1213C37.6839 42.5587 38 41.7956 38 41V28C38 27.2044 37.6839 26.4413 37.1213 25.8787C36.5587 25.3161 35.7956 25 35 25H13Z" fill="white"/>
<path fill-rule="evenodd" clip-rule="evenodd" d="M22.0005 30.0002C22.0005 29.735 21.8952 29.4806 21.7076 29.2931C21.5201 29.1056 21.2658 29.0002 21.0005 29.0002H15.7505C15.5194 29.0003 15.2955 29.0805 15.1169 29.2271C14.9382 29.3737 14.8158 29.5776 14.7705 29.8042L14.0205 33.5542C13.9818 33.7481 14.0015 33.9491 14.077 34.1318C14.1525 34.3145 14.2805 34.4708 14.4448 34.5808C14.609 34.6908 14.8022 34.7497 14.9999 34.7499C15.1976 34.7502 15.391 34.6918 15.5555 34.5822C15.7655 34.4422 16.6985 34.0002 18.0005 34.0002C18.531 34.0002 19.0397 34.2109 19.4148 34.586C19.7898 34.9611 20.0005 35.4698 20.0005 36.0002C20.0005 36.5306 19.7898 37.0394 19.4148 37.4144C19.0397 37.7895 18.531 38.0002 18.0005 38.0002H17.1685C16.5915 38.0002 16.1145 37.6402 15.9415 37.1602C15.8514 36.9106 15.6657 36.7071 15.4255 36.5944C15.1853 36.4817 14.9101 36.469 14.6605 36.5592C14.411 36.6494 14.2074 36.835 14.0947 37.0752C13.982 37.3155 13.9694 37.5906 14.0595 37.8402C14.2932 38.4763 14.7173 39.025 15.2739 39.4115C15.8306 39.798 16.4929 40.0035 17.1705 40.0002H18.0005C19.0614 40.0002 20.0788 39.5788 20.829 38.8286C21.5791 38.0785 22.0005 37.0611 22.0005 36.0002C22.0005 34.9393 21.5791 33.9219 20.829 33.1718C20.0788 32.4216 19.0614 32.0002 18.0005 32.0002C17.3905 32.0002 16.8275 32.0722 16.3345 32.1822L16.5705 31.0002H21.0005C21.2658 31.0002 21.5201 30.8949 21.7076 30.7073C21.8952 30.5198 22.0005 30.2654 22.0005 30.0002ZM32.6745 30.3622C32.7765 30.4485 32.8602 30.5544 32.9206 30.6737C32.981 30.7929 33.0168 30.923 33.0261 31.0563C33.0353 31.1896 33.0178 31.3234 32.9744 31.4498C32.9311 31.5762 32.8629 31.6927 32.7738 31.7923C32.6847 31.8918 32.5765 31.9726 32.4557 32.0297C32.3349 32.0867 32.2038 32.119 32.0703 32.1246C31.9368 32.1302 31.8035 32.109 31.6783 32.0622C31.5532 32.0154 31.4387 31.944 31.3415 31.8522C30.8509 31.4133 30.2465 31.1214 29.5976 31.0101C28.9488 30.8988 28.2817 30.9725 27.6728 31.2229C27.0639 31.4732 26.5379 31.89 26.1549 32.4256C25.772 32.9611 25.5477 33.5936 25.5077 34.2508C25.4677 34.9079 25.6136 35.563 25.9288 36.141C26.2439 36.719 26.7155 37.1966 27.2896 37.5189C27.8636 37.8412 28.5168 37.9954 29.1744 37.9636C29.832 37.9318 30.4673 37.7154 31.0075 37.3392V35.4642H29.0055C28.7403 35.4642 28.486 35.3589 28.2984 35.1713C28.1109 34.9838 28.0055 34.7294 28.0055 34.4642C28.0055 34.199 28.1109 33.9446 28.2984 33.7571C28.486 33.5696 28.7403 33.4642 29.0055 33.4642H32.0075C32.2728 33.4642 32.5271 33.5696 32.7146 33.7571C32.9022 33.9446 33.0075 34.199 33.0075 34.4642V37.8212C33.0075 37.9618 32.9779 38.1008 32.9205 38.2292C32.8631 38.3576 32.7793 38.4724 32.6745 38.5662C31.8826 39.2747 30.9026 39.7388 29.8527 39.9025C28.8028 40.0662 27.728 39.9225 26.758 39.4888C25.788 39.0551 24.9643 38.3498 24.3863 37.4582C23.8083 36.5666 23.5007 35.5268 23.5007 34.4642C23.5007 33.4016 23.8083 32.3618 24.3863 31.4702C24.9643 30.5786 25.788 29.8734 26.758 29.4396C27.728 29.0059 28.8028 28.8622 29.8527 29.0259C30.9026 29.1896 31.8826 29.6537 32.6745 30.3622Z" fill="white"/>
</svg>
