<svg width="47" height="47" viewBox="0 0 47 47" fill="none" xmlns="http://www.w3.org/2000/svg">
<path d="M35.25 9.81133L35.2696 9.78979M41.125 7.83341V39.1667C41.125 40.2055 40.7124 41.2017 39.9778 41.9362C39.2433 42.6708 38.2471 43.0834 37.2083 43.0834H9.79167C8.7529 43.0834 7.75668 42.6708 7.02216 41.9362C6.28765 41.2017 5.875 40.2055 5.875 39.1667V7.83341C5.875 6.79465 6.28765 5.79843 7.02216 5.06391C7.75668 4.3294 8.7529 3.91675 9.79167 3.91675H37.2083C38.2471 3.91675 39.2433 4.3294 39.9778 5.06391C40.7124 5.79843 41.125 6.79465 41.125 7.83341Z" stroke="white" stroke-width="1.5" stroke-linecap="round" stroke-linejoin="round"/>
<path d="M23.5 37.2085C26.6163 37.2085 29.605 35.9706 31.8085 33.767C34.0121 31.5635 35.25 28.5748 35.25 25.4585C35.25 22.3422 34.0121 19.3535 31.8085 17.15C29.605 14.9464 26.6163 13.7085 23.5 13.7085C20.3837 13.7085 17.395 14.9464 15.1915 17.15C12.9879 19.3535 11.75 22.3422 11.75 25.4585C11.75 28.5748 12.9879 31.5635 15.1915 33.767C17.395 35.9706 20.3837 37.2085 23.5 37.2085V37.2085Z" stroke="white" stroke-width="1.5" stroke-linecap="round" stroke-linejoin="round"/>
<path d="M23.5 31.3335C21.9419 31.3335 20.4475 30.7145 19.3457 29.6127C18.244 28.511 17.625 27.0166 17.625 25.4585" stroke="white" stroke-width="1.5" stroke-linecap="round" stroke-linejoin="round"/>
</svg>
