<svg width="35" height="35" viewBox="0 0 35 35" fill="none" xmlns="http://www.w3.org/2000/svg">
<g clip-path="url(#clip0_2526_774)">
<path d="M35 17.5C35 22.1413 33.1563 26.5925 29.8744 29.8744C26.5925 33.1563 22.1413 35 17.5 35C12.8587 35 8.40752 33.1563 5.12563 29.8744C1.84374 26.5925 0 22.1413 0 17.5C0 12.8587 1.84374 8.40752 5.12563 5.12563C8.40752 1.84374 12.8587 0 17.5 0C22.1413 0 26.5925 1.84374 29.8744 5.12563C33.1563 8.40752 35 12.8587 35 17.5ZM14.8531 11.1409C14.6896 11.0245 14.4971 10.9553 14.2969 10.941C14.0966 10.9266 13.8963 10.9677 13.7178 11.0596C13.5394 11.1516 13.3896 11.2909 13.2851 11.4622C13.1805 11.6336 13.1251 11.8305 13.125 12.0312V22.9688C13.1251 23.1695 13.1805 23.3664 13.2851 23.5378C13.3896 23.7091 13.5394 23.8484 13.7178 23.9404C13.8963 24.0323 14.0966 24.0734 14.2969 24.059C14.4971 24.0447 14.6896 23.9755 14.8531 23.8591L22.5094 18.3903C22.6512 18.2891 22.7667 18.1556 22.8465 18.0007C22.9262 17.8458 22.9678 17.6742 22.9678 17.5C22.9678 17.3258 22.9262 17.1542 22.8465 16.9993C22.7667 16.8444 22.6512 16.7109 22.5094 16.6097L14.8531 11.1409Z" fill="white"/>
</g>
<defs>
<clipPath id="clip0_2526_774">
<rect width="35" height="35" fill="white"/>
</clipPath>
</defs>
</svg>
