<svg width="41" height="41" viewBox="0 0 41 41" fill="none" xmlns="http://www.w3.org/2000/svg">
<path d="M17.9344 7.68731C17.9344 6.19215 17.3404 4.75823 16.2832 3.70099C15.226 2.64375 13.792 2.0498 12.2969 2.0498C10.8017 2.0498 9.3678 2.64375 8.31056 3.70099C7.25332 4.75823 6.65938 6.19215 6.65938 7.68731C6.65938 9.18246 7.25332 10.6164 8.31056 11.6736C9.3678 12.7309 10.8017 13.3248 12.2969 13.3248C13.792 13.3248 15.226 12.7309 16.2832 11.6736C17.3404 10.6164 17.9344 9.18246 17.9344 7.68731ZM8.70938 7.68731C8.70938 7.21619 8.80217 6.74968 8.98246 6.31443C9.16275 5.87917 9.427 5.48369 9.76013 5.15056C10.0933 4.81743 10.4887 4.55318 10.924 4.37289C11.3593 4.1926 11.8258 4.0998 12.2969 4.0998C12.768 4.0998 13.2345 4.1926 13.6698 4.37289C14.105 4.55318 14.5005 4.81743 14.8336 5.15056C15.1668 5.48369 15.431 5.87917 15.6113 6.31443C15.7916 6.74968 15.8844 7.21619 15.8844 7.68731C15.8844 8.63877 15.5064 9.55126 14.8336 10.2241C14.1608 10.8968 13.2483 11.2748 12.2969 11.2748C11.3454 11.2748 10.4329 10.8968 9.76013 10.2241C9.08734 9.55126 8.70938 8.63877 8.70938 7.68731ZM5.12188 15.3748H13.697C13.3608 16.0103 13.1107 16.6991 12.9631 17.4248H5.12188C4.85003 17.4248 4.58932 17.5328 4.39709 17.725C4.20487 17.9172 4.09688 18.178 4.09688 18.4498V19.4748C4.09688 22.0578 6.34983 24.8335 10.4437 25.4813C9.78358 25.9323 9.23418 26.533 8.84263 27.232C4.51713 26.0615 2.04688 22.7282 2.04688 19.4748V18.4498C2.04688 17.6343 2.37085 16.8521 2.94752 16.2755C3.5242 15.6988 4.30633 15.3748 5.12188 15.3748ZM16.1488 15.3748C17.182 14.1243 18.7462 13.3248 20.4969 13.3248C21.7246 13.3227 22.9192 13.7222 23.8986 14.4625C24.878 15.2028 25.5883 16.2431 25.9212 17.4248C26.2179 18.4795 26.2012 19.5978 25.8731 20.6432C25.5449 21.6886 24.9196 22.6158 24.0734 23.3118C23.2272 24.0078 22.1967 24.4425 21.1077 24.5627C20.0187 24.6829 18.9182 24.4836 17.9405 23.9889C17.1878 23.6058 16.5308 23.0585 16.018 22.3873C15.5052 21.7162 15.1498 20.9384 14.978 20.1114C14.8062 19.2845 14.8224 18.4295 15.0254 17.6096C15.2284 16.7898 15.613 16.026 16.1509 15.3748H16.1488ZM17.2558 17.4248C17.0539 17.8507 16.9379 18.3122 16.9143 18.7829C16.8908 19.2537 16.9602 19.7244 17.1185 20.1683C17.2769 20.6123 17.5212 21.0206 17.8374 21.3702C18.1536 21.7197 18.5355 22.0035 18.9614 22.2054C19.3873 22.4073 19.8488 22.5234 20.3195 22.5469C20.7903 22.5705 21.261 22.5011 21.705 22.3427C22.1489 22.1843 22.5573 21.9401 22.9068 21.6239C23.2563 21.3076 23.5401 20.9257 23.742 20.4998C24.1498 19.6394 24.1991 18.6523 23.879 17.7555C23.559 16.8588 22.8958 16.126 22.0354 15.7182C21.175 15.3104 20.1879 15.2611 19.2911 15.5812C18.3944 15.9012 17.6615 16.5644 17.2538 17.4248H17.2558ZM32.1511 27.232C31.7607 26.5326 31.2125 25.9338 30.5501 25.4834C34.6419 24.8335 36.8969 22.0558 36.8969 19.4748V18.4498C36.8969 18.178 36.7889 17.9172 36.5967 17.725C36.4044 17.5328 36.1437 17.4248 35.8719 17.4248H28.0306C27.8858 16.71 27.6393 16.0197 27.2988 15.3748H35.8719C36.6874 15.3748 37.4696 15.6988 38.0462 16.2755C38.6229 16.8521 38.9469 17.6343 38.9469 18.4498V19.4748C38.9469 22.7282 36.4746 26.0594 32.1511 27.232ZM29.6952 27.4104C29.1357 26.9192 28.4164 26.6488 27.6719 26.6498H13.3219C12.9178 26.6487 12.5174 26.7275 12.1438 26.8817C11.7703 27.0358 11.4309 27.2623 11.1451 27.548C10.8594 27.8338 10.6329 28.1732 10.4787 28.5468C10.3246 28.9203 10.2458 29.3207 10.2469 29.7248V30.7498C10.2469 34.7904 14.0599 38.9498 20.4969 38.9498C26.9339 38.9498 30.7469 34.7904 30.7469 30.7498V29.7248C30.7469 28.8023 30.341 27.9741 29.6952 27.4083V27.4104ZM12.2969 29.7248C12.2969 29.453 12.4049 29.1922 12.5971 29C12.7893 28.8078 13.05 28.6998 13.3219 28.6998H27.6719C27.9437 28.6998 28.2044 28.8078 28.3967 29C28.5889 29.1922 28.6969 29.453 28.6969 29.7248V30.7498C28.6969 33.6977 25.7613 36.8998 20.4969 36.8998C15.2325 36.8998 12.2969 33.6977 12.2969 30.7498V29.7248ZM28.6969 2.0498C30.192 2.0498 31.626 2.64375 32.6832 3.70099C33.7404 4.75823 34.3344 6.19215 34.3344 7.68731C34.3344 9.18246 33.7404 10.6164 32.6832 11.6736C31.626 12.7309 30.192 13.3248 28.6969 13.3248C27.2017 13.3248 25.7678 12.7309 24.7106 11.6736C23.6533 10.6164 23.0594 9.18246 23.0594 7.68731C23.0594 6.19215 23.6533 4.75823 24.7106 3.70099C25.7678 2.64375 27.2017 2.0498 28.6969 2.0498ZM28.6969 4.0998C27.7454 4.0998 26.8329 4.47777 26.1601 5.15056C25.4873 5.82335 25.1094 6.73584 25.1094 7.68731C25.1094 8.63877 25.4873 9.55126 26.1601 10.2241C26.8329 10.8968 27.7454 11.2748 28.6969 11.2748C29.6483 11.2748 30.5608 10.8968 31.2336 10.2241C31.9064 9.55126 32.2844 8.63877 32.2844 7.68731C32.2844 6.73584 31.9064 5.82335 31.2336 5.15056C30.5608 4.47777 29.6483 4.0998 28.6969 4.0998Z" fill="#BCAEFF"/>
</svg>
