<svg width="41" height="41" viewBox="0 0 41 41" fill="none" xmlns="http://www.w3.org/2000/svg">
<g clip-path="url(#clip0_2195_483)">
<path d="M38.2915 19.9646C34.4534 12.8693 27.7226 8.57568 20.2743 8.57568C12.8259 8.57568 6.08372 12.8693 2.27983 19.9646L1.96094 20.4999L2.25705 21.0465C6.0951 28.1418 12.8259 32.4354 20.2743 32.4354C27.7226 32.4354 34.4648 28.1987 38.2915 21.0465L38.5876 20.4999L38.2915 19.9646ZM20.2743 30.1007C13.8623 30.1007 7.97427 26.5246 4.5576 20.4999C7.97427 14.4751 13.8623 10.899 20.2743 10.899C26.6862 10.899 32.5059 14.4865 35.9796 20.4999C32.5059 26.5246 26.6748 30.1007 20.2743 30.1007Z" fill="#BCAEFF"/>
<path d="M20.5995 12.7214C19.0553 12.7327 17.5491 13.2013 16.2711 14.0681C14.9931 14.9349 14.0006 16.161 13.419 17.5916C12.8374 19.0221 12.6928 20.5929 13.0035 22.1056C13.3141 23.6183 14.066 25.0049 15.1643 26.0905C16.2626 27.1761 17.658 27.9118 19.1741 28.2048C20.6903 28.4978 22.2593 28.3349 23.683 27.7367C25.1067 27.1385 26.3211 26.1319 27.173 24.8438C28.0249 23.5558 28.4759 22.0442 28.4692 20.5C28.4648 19.4721 28.2575 18.4552 27.8593 17.5075C27.4611 16.5598 26.8798 15.7 26.1487 14.9774C25.4177 14.2548 24.5512 13.6836 23.5989 13.2964C22.6467 12.9093 21.6274 12.7139 20.5995 12.7214ZM20.5995 26.0692C19.5087 26.0579 18.4456 25.7246 17.5437 25.1112C16.6417 24.4977 15.9411 23.6314 15.5299 22.621C15.1187 21.6107 15.0152 20.5013 15.2324 19.4324C15.4496 18.3634 15.9778 17.3824 16.7507 16.6127C17.5236 15.8429 18.5067 15.3187 19.5766 15.1059C20.6465 14.893 21.7554 15.001 22.764 15.4164C23.7727 15.8317 24.6361 16.5358 25.2459 17.4403C25.8557 18.3447 26.1847 19.4092 26.1915 20.5C26.1945 21.2341 26.0518 21.9616 25.7715 22.6401C25.4913 23.3187 25.0792 23.9348 24.559 24.4529C24.0388 24.9709 23.421 25.3805 22.7413 25.658C22.0616 25.9355 21.3336 26.0752 20.5995 26.0692Z" fill="#BCAEFF"/>
</g>
<defs>
<clipPath id="clip0_2195_483">
<rect width="41" height="41" fill="white"/>
</clipPath>
</defs>
</svg>
