<svg width="25" height="24" viewBox="0 0 25 24" fill="none" xmlns="http://www.w3.org/2000/svg">
<path fill-rule="evenodd" clip-rule="evenodd" d="M1.92188 2.838C1.92188 2.35053 2.11552 1.88303 2.46021 1.53834C2.8049 1.19365 3.27241 1 3.75988 1H22.0819C22.3235 0.999608 22.5627 1.04687 22.786 1.13907C23.0093 1.23127 23.2122 1.36661 23.3831 1.53734C23.554 1.70807 23.6896 1.91083 23.782 2.13401C23.8745 2.3572 23.922 2.59643 23.9219 2.838V21.16C23.9221 21.4016 23.8748 21.6409 23.7824 21.8642C23.6901 22.0875 23.5547 22.2904 23.3839 22.4613C23.2131 22.6322 23.0103 22.7678 22.787 22.8602C22.5638 22.9526 22.3245 23.0001 22.0829 23H3.75988C3.51842 23 3.27933 22.9524 3.05627 22.86C2.83321 22.7676 2.63055 22.6321 2.45986 22.4613C2.28917 22.2905 2.15381 22.0878 2.0615 21.8647C1.96919 21.6416 1.92174 21.4025 1.92188 21.161V2.838ZM10.6299 9.388H13.6089V10.884C14.0389 10.024 15.1389 9.25 16.7919 9.25C19.9609 9.25 20.7119 10.963 20.7119 14.106V19.928H17.5049V14.822C17.5049 13.032 17.0749 12.022 15.9829 12.022C14.4679 12.022 13.8379 13.111 13.8379 14.822V19.928H10.6299V9.388ZM5.12988 19.791H8.33788V9.25H5.12988V19.79V19.791ZM8.79688 5.812C8.80292 6.08668 8.75405 6.35979 8.65311 6.61532C8.55218 6.87084 8.40123 7.10364 8.20911 7.30003C8.01699 7.49643 7.78757 7.65248 7.53433 7.75901C7.28109 7.86554 7.00911 7.92042 6.73438 7.92042C6.45964 7.92042 6.18766 7.86554 5.93442 7.75901C5.68118 7.65248 5.45176 7.49643 5.25964 7.30003C5.06752 7.10364 4.91657 6.87084 4.81564 6.61532C4.7147 6.35979 4.66583 6.08668 4.67188 5.812C4.68375 5.27286 4.90626 4.75979 5.29176 4.38269C5.67726 4.00558 6.1951 3.79442 6.73438 3.79442C7.27365 3.79442 7.79149 4.00558 8.17699 4.38269C8.56249 4.75979 8.785 5.27286 8.79688 5.812Z" fill="white"/>
</svg>
