<svg width="30" height="30" viewBox="0 0 30 30" fill="none" xmlns="http://www.w3.org/2000/svg">
<path d="M14.5875 13.0468L14.5875 13.0469C14.5126 13.2217 14.4822 13.4124 14.499 13.6019C14.5159 13.7913 14.5794 13.9736 14.684 14.1325C14.7887 14.2913 14.931 14.4218 15.0984 14.5121C15.2657 14.6023 15.4528 14.6497 15.6428 14.65C15.643 14.65 15.6431 14.65 15.6432 14.65M14.5875 13.0468L15.6428 15L15.6432 14.65M14.5875 13.0468L17.547 6.13781L17.756 5.65H17.2253H12.9893H12.7585L12.6676 5.86218L9.4546 13.3622L9.24562 13.85H9.77632L12.3215 13.85M14.5875 13.0468L14.2928 19.0074M15.6432 14.65L18.4388 14.65H19.3864L18.6663 15.266L14.2928 19.0074M15.6432 14.65L14.2928 19.0074M14.2928 19.0074L14.2991 19.0015L14.0588 18.747L14.2863 19.013L14.2928 19.0074ZM14.2928 19.0074L11.6771 21.4765L11.1121 21.0915L13.3876 15.429L13.3876 15.4289C13.4577 15.2545 13.484 15.0655 13.4641 14.8785C13.4443 14.6916 13.3789 14.5123 13.2737 14.3565C13.1685 14.2007 13.0267 14.073 12.8607 13.9847C12.6948 13.8965 12.5097 13.8502 12.3218 13.85M12.3218 13.85V13.5L12.3215 13.85M12.3218 13.85L12.3215 13.85M12.3218 13.85L12.3215 13.85M17.5966 11.8621L17.3875 12.35H17.9183H22.5008C23.5702 12.35 24.0606 13.679 23.2483 14.374C23.2483 14.374 23.2483 14.374 23.2483 14.374L15.8383 20.7115L15.8318 20.7171L15.8256 20.723L8.28958 27.836L8.28946 27.8361C7.39396 28.6822 5.97357 27.7153 6.43356 26.5711L6.4336 26.571L10.4266 16.6305L10.6196 16.15H10.1018H7.50082L7.50051 16.15C7.31011 16.1502 7.12265 16.1031 6.95495 16.0129C6.78724 15.9227 6.64455 15.7924 6.53967 15.6334C6.4348 15.4745 6.37102 15.2921 6.35406 15.1024C6.3371 14.9128 6.36749 14.7219 6.44251 14.5469L6.44252 14.5469L10.9425 4.0469C11.0312 3.8399 11.1788 3.66351 11.3669 3.53962C11.555 3.41574 11.7753 3.3498 12.0005 3.35H12.0008H19.5008C19.5008 3.35 19.5008 3.35 19.5008 3.35C19.6911 3.35003 19.8784 3.39727 20.046 3.48751C20.2135 3.57774 20.356 3.70815 20.4608 3.86703C20.5655 4.02591 20.6292 4.20831 20.6461 4.39786C20.663 4.58741 20.6326 4.77819 20.5576 4.9531L20.5576 4.95313L17.5966 11.8621Z" fill="white" stroke="black" stroke-width="0.7"/>
</svg>
