<svg width="30" height="30" viewBox="0 0 30 30" fill="none" xmlns="http://www.w3.org/2000/svg">
<mask id="path-1-inside-1_2708_487" fill="white">
<path d="M11.25 8.75H6.43125C7.59214 7.15367 9.17455 5.91208 11.0012 5.16432C12.8279 4.41656 14.8267 4.19215 16.7737 4.51625C16.934 4.53612 17.0957 4.49318 17.225 4.39645C17.3543 4.29971 17.4412 4.15668 17.4674 3.99733C17.4936 3.83798 17.457 3.67468 17.3655 3.54165C17.2739 3.40863 17.1344 3.3162 16.9763 3.28375C16.3228 3.17779 15.6619 3.1247 15 3.125C13.1908 3.12804 11.406 3.54358 9.78149 4.34002C8.15697 5.13647 6.73545 6.29286 5.625 7.72125V3.125C5.625 2.95924 5.55915 2.80027 5.44194 2.68306C5.32473 2.56585 5.16576 2.5 5 2.5C4.83424 2.5 4.67527 2.56585 4.55806 2.68306C4.44085 2.80027 4.375 2.95924 4.375 3.125V9.375C4.375 9.54076 4.44085 9.69973 4.55806 9.81694C4.67527 9.93415 4.83424 10 5 10H11.25C11.4158 10 11.5747 9.93415 11.6919 9.81694C11.8092 9.69973 11.875 9.54076 11.875 9.375C11.875 9.20924 11.8092 9.05027 11.6919 8.93306C11.5747 8.81585 11.4158 8.75 11.25 8.75ZM9.375 18.125C9.20924 18.125 9.05027 18.1908 8.93306 18.3081C8.81585 18.4253 8.75 18.5842 8.75 18.75V23.5687C7.15367 22.4079 5.91208 20.8254 5.16432 18.9988C4.41656 17.1721 4.19215 15.1733 4.51625 13.2263C4.53612 13.066 4.49318 12.9043 4.39645 12.775C4.29971 12.6457 4.15668 12.5588 3.99733 12.5326C3.83798 12.5064 3.67468 12.543 3.54165 12.6345C3.40863 12.7261 3.3162 12.8656 3.28375 13.0237C2.93144 15.1401 3.15784 17.3124 3.939 19.3106C4.72016 21.3088 6.02701 23.0587 7.72125 24.375H3.125C2.95924 24.375 2.80027 24.4408 2.68306 24.5581C2.56585 24.6753 2.5 24.8342 2.5 25C2.5 25.1658 2.56585 25.3247 2.68306 25.4419C2.80027 25.5592 2.95924 25.625 3.125 25.625H9.375C9.54076 25.625 9.69973 25.5592 9.81694 25.4419C9.93415 25.3247 10 25.1658 10 25V18.75C10 18.5842 9.93415 18.4253 9.81694 18.3081C9.69973 18.1908 9.54076 18.125 9.375 18.125ZM25 20H18.75C18.5842 20 18.4253 20.0658 18.3081 20.1831C18.1908 20.3003 18.125 20.4592 18.125 20.625C18.125 20.7908 18.1908 20.9497 18.3081 21.0669C18.4253 21.1842 18.5842 21.25 18.75 21.25H23.5687C22.4079 22.8463 20.8254 24.0879 18.9988 24.8357C17.1721 25.5834 15.1733 25.8078 13.2263 25.4837C13.066 25.4639 12.9043 25.5068 12.775 25.6036C12.6457 25.7003 12.5588 25.8433 12.5326 26.0027C12.5064 26.162 12.543 26.3253 12.6345 26.4583C12.7261 26.5914 12.8656 26.6838 13.0237 26.7162C13.6772 26.8222 14.3381 26.8753 15 26.875C16.8092 26.872 18.594 26.4564 20.2185 25.66C21.843 24.8635 23.2646 23.7071 24.375 22.2787V26.875C24.375 27.0408 24.4408 27.1997 24.5581 27.3169C24.6753 27.4342 24.8342 27.5 25 27.5C25.1658 27.5 25.3247 27.4342 25.4419 27.3169C25.5592 27.1997 25.625 27.0408 25.625 26.875V20.625C25.625 20.4592 25.5592 20.3003 25.4419 20.1831C25.3247 20.0658 25.1658 20 25 20ZM26.875 4.375H20.625C20.4592 4.375 20.3003 4.44085 20.1831 4.55806C20.0658 4.67527 20 4.83424 20 5V11.25C20 11.4158 20.0658 11.5747 20.1831 11.6919C20.3003 11.8092 20.4592 11.875 20.625 11.875C20.7908 11.875 20.9497 11.8092 21.0669 11.6919C21.1842 11.5747 21.25 11.4158 21.25 11.25V6.425C22.4546 7.29016 23.4597 8.40351 24.1975 9.69C25.1343 11.3027 25.6268 13.1349 25.625 15C25.625 15.5938 25.5787 16.1875 25.4837 16.7737C25.4705 16.8547 25.4732 16.9374 25.4919 17.0173C25.5106 17.0971 25.5448 17.1725 25.5927 17.2392C25.6405 17.3058 25.701 17.3623 25.7706 17.4056C25.8403 17.4488 25.9178 17.478 25.9987 17.4913C26.0797 17.5045 26.1624 17.5018 26.2423 17.4831C26.3221 17.4644 26.3975 17.4302 26.4642 17.3823C26.5308 17.3345 26.5873 17.2741 26.6306 17.2044C26.6738 17.1347 26.703 17.0572 26.7162 16.9763C26.8222 16.3228 26.8753 15.6619 26.875 15C26.8769 12.9161 26.327 10.8688 25.2812 9.06625C24.5198 7.73238 23.5014 6.56274 22.285 5.625H26.875C27.0408 5.625 27.1997 5.55915 27.3169 5.44194C27.4342 5.32473 27.5 5.16576 27.5 5C27.5 4.83424 27.4342 4.67527 27.3169 4.55806C27.1997 4.44085 27.0408 4.375 26.875 4.375Z"/>
</mask>
<path d="M11.25 8.75H6.43125C7.59214 7.15367 9.17455 5.91208 11.0012 5.16432C12.8279 4.41656 14.8267 4.19215 16.7737 4.51625C16.934 4.53612 17.0957 4.49318 17.225 4.39645C17.3543 4.29971 17.4412 4.15668 17.4674 3.99733C17.4936 3.83798 17.457 3.67468 17.3655 3.54165C17.2739 3.40863 17.1344 3.3162 16.9763 3.28375C16.3228 3.17779 15.6619 3.1247 15 3.125C13.1908 3.12804 11.406 3.54358 9.78149 4.34002C8.15697 5.13647 6.73545 6.29286 5.625 7.72125V3.125C5.625 2.95924 5.55915 2.80027 5.44194 2.68306C5.32473 2.56585 5.16576 2.5 5 2.5C4.83424 2.5 4.67527 2.56585 4.55806 2.68306C4.44085 2.80027 4.375 2.95924 4.375 3.125V9.375C4.375 9.54076 4.44085 9.69973 4.55806 9.81694C4.67527 9.93415 4.83424 10 5 10H11.25C11.4158 10 11.5747 9.93415 11.6919 9.81694C11.8092 9.69973 11.875 9.54076 11.875 9.375C11.875 9.20924 11.8092 9.05027 11.6919 8.93306C11.5747 8.81585 11.4158 8.75 11.25 8.75ZM9.375 18.125C9.20924 18.125 9.05027 18.1908 8.93306 18.3081C8.81585 18.4253 8.75 18.5842 8.75 18.75V23.5687C7.15367 22.4079 5.91208 20.8254 5.16432 18.9988C4.41656 17.1721 4.19215 15.1733 4.51625 13.2263C4.53612 13.066 4.49318 12.9043 4.39645 12.775C4.29971 12.6457 4.15668 12.5588 3.99733 12.5326C3.83798 12.5064 3.67468 12.543 3.54165 12.6345C3.40863 12.7261 3.3162 12.8656 3.28375 13.0237C2.93144 15.1401 3.15784 17.3124 3.939 19.3106C4.72016 21.3088 6.02701 23.0587 7.72125 24.375H3.125C2.95924 24.375 2.80027 24.4408 2.68306 24.5581C2.56585 24.6753 2.5 24.8342 2.5 25C2.5 25.1658 2.56585 25.3247 2.68306 25.4419C2.80027 25.5592 2.95924 25.625 3.125 25.625H9.375C9.54076 25.625 9.69973 25.5592 9.81694 25.4419C9.93415 25.3247 10 25.1658 10 25V18.75C10 18.5842 9.93415 18.4253 9.81694 18.3081C9.69973 18.1908 9.54076 18.125 9.375 18.125ZM25 20H18.75C18.5842 20 18.4253 20.0658 18.3081 20.1831C18.1908 20.3003 18.125 20.4592 18.125 20.625C18.125 20.7908 18.1908 20.9497 18.3081 21.0669C18.4253 21.1842 18.5842 21.25 18.75 21.25H23.5687C22.4079 22.8463 20.8254 24.0879 18.9988 24.8357C17.1721 25.5834 15.1733 25.8078 13.2263 25.4837C13.066 25.4639 12.9043 25.5068 12.775 25.6036C12.6457 25.7003 12.5588 25.8433 12.5326 26.0027C12.5064 26.162 12.543 26.3253 12.6345 26.4583C12.7261 26.5914 12.8656 26.6838 13.0237 26.7162C13.6772 26.8222 14.3381 26.8753 15 26.875C16.8092 26.872 18.594 26.4564 20.2185 25.66C21.843 24.8635 23.2646 23.7071 24.375 22.2787V26.875C24.375 27.0408 24.4408 27.1997 24.5581 27.3169C24.6753 27.4342 24.8342 27.5 25 27.5C25.1658 27.5 25.3247 27.4342 25.4419 27.3169C25.5592 27.1997 25.625 27.0408 25.625 26.875V20.625C25.625 20.4592 25.5592 20.3003 25.4419 20.1831C25.3247 20.0658 25.1658 20 25 20ZM26.875 4.375H20.625C20.4592 4.375 20.3003 4.44085 20.1831 4.55806C20.0658 4.67527 20 4.83424 20 5V11.25C20 11.4158 20.0658 11.5747 20.1831 11.6919C20.3003 11.8092 20.4592 11.875 20.625 11.875C20.7908 11.875 20.9497 11.8092 21.0669 11.6919C21.1842 11.5747 21.25 11.4158 21.25 11.25V6.425C22.4546 7.29016 23.4597 8.40351 24.1975 9.69C25.1343 11.3027 25.6268 13.1349 25.625 15C25.625 15.5938 25.5787 16.1875 25.4837 16.7737C25.4705 16.8547 25.4732 16.9374 25.4919 17.0173C25.5106 17.0971 25.5448 17.1725 25.5927 17.2392C25.6405 17.3058 25.701 17.3623 25.7706 17.4056C25.8403 17.4488 25.9178 17.478 25.9987 17.4913C26.0797 17.5045 26.1624 17.5018 26.2423 17.4831C26.3221 17.4644 26.3975 17.4302 26.4642 17.3823C26.5308 17.3345 26.5873 17.2741 26.6306 17.2044C26.6738 17.1347 26.703 17.0572 26.7162 16.9763C26.8222 16.3228 26.8753 15.6619 26.875 15C26.8769 12.9161 26.327 10.8688 25.2812 9.06625C24.5198 7.73238 23.5014 6.56274 22.285 5.625H26.875C27.0408 5.625 27.1997 5.55915 27.3169 5.44194C27.4342 5.32473 27.5 5.16576 27.5 5C27.5 4.83424 27.4342 4.67527 27.3169 4.55806C27.1997 4.44085 27.0408 4.375 26.875 4.375Z" fill="white"/>
<path d="M6.43125 8.75L5.21812 7.86778L3.48572 10.25H6.43125V8.75ZM16.7737 4.51625L16.5275 5.99589L16.5582 6.00102L16.5892 6.00486L16.7737 4.51625ZM16.9763 3.28375L17.2777 1.81436L17.2472 1.80809L17.2164 1.80309L16.9763 3.28375ZM15 3.125L14.9993 1.625L14.9975 1.625L15 3.125ZM5.625 7.72125H4.125V12.0947L6.80924 8.64189L5.625 7.72125ZM5 2.5V1V2.5ZM8.75 23.5687L7.86778 24.7819L10.25 26.5143V23.5687H8.75ZM4.51625 13.2263L5.99589 13.4725L6.00102 13.4418L6.00486 13.4108L4.51625 13.2263ZM3.28375 13.0237L1.81436 12.7223L1.80872 12.7498L1.80411 12.7774L3.28375 13.0237ZM7.72125 24.375V25.875H12.0968L8.64154 23.1905L7.72125 24.375ZM2.5 25H1H2.5ZM23.5687 21.25L24.7819 22.1322L26.5143 19.75H23.5687V21.25ZM13.2263 25.4837L13.4725 24.0041L13.4418 23.999L13.4108 23.9951L13.2263 25.4837ZM13.0237 26.7162L12.7223 28.1856L12.7528 28.1919L12.7836 28.1969L13.0237 26.7162ZM15 26.875L15.0007 28.375L15.0025 28.375L15 26.875ZM24.375 22.2787H25.875V17.9053L23.1908 21.3581L24.375 22.2787ZM20 5H18.5H20ZM21.25 6.425L22.125 5.20668L19.75 3.50085V6.425H21.25ZM24.1975 9.69L22.8963 10.4363L22.9004 10.4434L24.1975 9.69ZM25.625 15L24.125 14.9985V15H25.625ZM25.4837 16.7737L26.9639 17.0169L26.9644 17.0137L25.4837 16.7737ZM26.7162 16.9763L28.1964 17.2194L28.1969 17.2163L26.7162 16.9763ZM26.875 15L25.375 14.9987V15.0006L26.875 15ZM25.2812 9.06625L23.9785 9.80992L23.9838 9.81896L25.2812 9.06625ZM22.285 5.625V4.125H17.8824L21.3692 6.81297L22.285 5.625ZM11.25 7.25H6.43125V10.25H11.25V7.25ZM7.64438 9.63222C8.64146 8.26114 10.0006 7.19476 11.5695 6.55251L10.433 3.77613C8.34853 4.62941 6.54281 6.04619 5.21812 7.86778L7.64438 9.63222ZM11.5695 6.55251C13.1384 5.91027 14.8552 5.71753 16.5275 5.99589L17.02 3.03661C14.7983 2.66678 12.5174 2.92285 10.433 3.77613L11.5695 6.55251ZM16.5892 6.00486C17.1341 6.0724 17.684 5.92643 18.1236 5.59752L16.3265 3.19537C16.5075 3.05994 16.7339 2.99983 16.9583 3.02764L16.5892 6.00486ZM18.1236 5.59752C18.5632 5.26861 18.8585 4.7823 18.9475 4.24052L15.9872 3.75414C16.0239 3.53105 16.1455 3.3308 16.3265 3.19537L18.1236 5.59752ZM18.9475 4.24052C19.0365 3.69872 18.9124 3.14351 18.6011 2.69123L16.1299 4.39208C16.0017 4.20585 15.9506 3.97723 15.9872 3.75414L18.9475 4.24052ZM18.6011 2.69123C18.2898 2.23895 17.8156 1.9247 17.2777 1.81436L16.6748 4.75314C16.4533 4.70771 16.258 4.57831 16.1299 4.39208L18.6011 2.69123ZM17.2164 1.80309C16.4833 1.68422 15.7419 1.62467 14.9993 1.625L15.0007 4.625C15.582 4.62474 16.1623 4.67136 16.7361 4.76441L17.2164 1.80309ZM14.9975 1.625C12.9602 1.62842 10.9505 2.09634 9.12118 2.99318L10.4418 5.68687C11.8616 4.99081 13.4213 4.62765 15.0025 4.625L14.9975 1.625ZM9.12118 2.99318C7.29189 3.89002 5.69118 5.19217 4.44076 6.80061L6.80924 8.64189C7.77971 7.39355 9.02206 6.38292 10.4418 5.68687L9.12118 2.99318ZM7.125 7.72125V3.125H4.125V7.72125H7.125ZM7.125 3.125C7.125 2.56141 6.90112 2.02091 6.5026 1.6224L4.38128 3.74372C4.21719 3.57963 4.125 3.35707 4.125 3.125H7.125ZM6.5026 1.6224C6.10409 1.22388 5.56359 1 5 1V4C4.76793 4 4.54538 3.90781 4.38128 3.74372L6.5026 1.6224ZM5 1C4.43641 1 3.89591 1.22388 3.4974 1.6224L5.61872 3.74372C5.45462 3.90781 5.23207 4 5 4V1ZM3.4974 1.6224C3.09888 2.02091 2.875 2.56141 2.875 3.125H5.875C5.875 3.35707 5.78281 3.57963 5.61872 3.74372L3.4974 1.6224ZM2.875 3.125V9.375H5.875V3.125H2.875ZM2.875 9.375C2.875 9.93859 3.09888 10.4791 3.4974 10.8776L5.61872 8.75628C5.78281 8.92037 5.875 9.14293 5.875 9.375H2.875ZM3.4974 10.8776C3.89591 11.2761 4.43641 11.5 5 11.5V8.5C5.23207 8.5 5.45462 8.59219 5.61872 8.75628L3.4974 10.8776ZM5 11.5H11.25V8.5H5V11.5ZM11.25 11.5C11.8136 11.5 12.3541 11.2761 12.7526 10.8776L10.6313 8.75628C10.7954 8.59219 11.0179 8.5 11.25 8.5V11.5ZM12.7526 10.8776C13.1511 10.4791 13.375 9.93858 13.375 9.375H10.375C10.375 9.14294 10.4672 8.92038 10.6313 8.75628L12.7526 10.8776ZM13.375 9.375C13.375 8.81142 13.1511 8.27092 12.7526 7.8724L10.6313 9.99372C10.4672 9.82962 10.375 9.60706 10.375 9.375H13.375ZM12.7526 7.8724C12.3541 7.47388 11.8136 7.25 11.25 7.25V10.25C11.0179 10.25 10.7954 10.1578 10.6313 9.99372L12.7526 7.8724ZM9.375 16.625C8.81142 16.625 8.27092 16.8489 7.8724 17.2474L9.99372 19.3687C9.82962 19.5328 9.60706 19.625 9.375 19.625V16.625ZM7.8724 17.2474C7.47388 17.6459 7.25 18.1864 7.25 18.75H10.25C10.25 18.9821 10.1578 19.2046 9.99372 19.3687L7.8724 17.2474ZM7.25 18.75V23.5687H10.25V18.75H7.25ZM9.63222 22.3556C8.26114 21.3585 7.19476 19.9994 6.55251 18.4305L3.77613 19.567C4.62941 21.6515 6.04619 23.4572 7.86778 24.7819L9.63222 22.3556ZM6.55251 18.4305C5.91027 16.8616 5.71753 15.1448 5.99589 13.4725L3.03661 12.98C2.66678 15.2017 2.92285 17.4826 3.77613 19.567L6.55251 18.4305ZM6.00486 13.4108C6.0724 12.8659 5.92643 12.316 5.59752 11.8764L3.19537 13.6735C3.05994 13.4925 2.99983 13.2661 3.02764 13.0417L6.00486 13.4108ZM5.59752 11.8764C5.26861 11.4368 4.7823 11.1415 4.24052 11.0525L3.75414 14.0128C3.53105 13.9761 3.3308 13.8545 3.19537 13.6735L5.59752 11.8764ZM4.24052 11.0525C3.69872 10.9635 3.14351 11.0876 2.69123 11.3989L4.39208 13.8701C4.20585 13.9983 3.97723 14.0494 3.75414 14.0128L4.24052 11.0525ZM2.69123 11.3989C2.23895 11.7102 1.9247 12.1844 1.81436 12.7223L4.75314 13.3252C4.70771 13.5467 4.57831 13.742 4.39208 13.8701L2.69123 11.3989ZM1.80411 12.7774C1.40739 15.1606 1.66233 17.6066 2.54195 19.8567L5.33604 18.7644C4.65335 17.0181 4.45548 15.1197 4.76339 13.2701L1.80411 12.7774ZM2.54195 19.8567C3.42158 22.1068 4.89316 24.0773 6.80096 25.5595L8.64154 23.1905C7.16086 22.0401 6.01873 20.5108 5.33604 18.7644L2.54195 19.8567ZM7.72125 22.875H3.125V25.875H7.72125V22.875ZM3.125 22.875C2.56142 22.875 2.02091 23.0989 1.6224 23.4974L3.74372 25.6187C3.57962 25.7828 3.35706 25.875 3.125 25.875V22.875ZM1.6224 23.4974C1.22388 23.8959 1 24.4364 1 25H4C4 25.2321 3.90781 25.4546 3.74372 25.6187L1.6224 23.4974ZM1 25C1 25.5636 1.22388 26.1041 1.6224 26.5026L3.74372 24.3813C3.90781 24.5454 4 24.7679 4 25H1ZM1.6224 26.5026C2.02091 26.9011 2.56142 27.125 3.125 27.125V24.125C3.35706 24.125 3.57962 24.2172 3.74372 24.3813L1.6224 26.5026ZM3.125 27.125H9.375V24.125H3.125V27.125ZM9.375 27.125C9.93858 27.125 10.4791 26.9011 10.8776 26.5026L8.75628 24.3813C8.92038 24.2172 9.14294 24.125 9.375 24.125V27.125ZM10.8776 26.5026C11.2761 26.1041 11.5 25.5636 11.5 25H8.5C8.5 24.7679 8.59219 24.5454 8.75628 24.3813L10.8776 26.5026ZM11.5 25V18.75H8.5V25H11.5ZM11.5 18.75C11.5 18.1864 11.2761 17.6459 10.8776 17.2474L8.75628 19.3687C8.59219 19.2046 8.5 18.9821 8.5 18.75H11.5ZM10.8776 17.2474C10.4791 16.8489 9.93858 16.625 9.375 16.625V19.625C9.14294 19.625 8.92038 19.5328 8.75628 19.3687L10.8776 17.2474ZM25 18.5H18.75V21.5H25V18.5ZM18.75 18.5C18.1864 18.5 17.6459 18.7239 17.2474 19.1224L19.3687 21.2437C19.2046 21.4078 18.9821 21.5 18.75 21.5V18.5ZM17.2474 19.1224C16.8489 19.5209 16.625 20.0614 16.625 20.625H19.625C19.625 20.8571 19.5328 21.0796 19.3687 21.2437L17.2474 19.1224ZM16.625 20.625C16.625 21.1886 16.8489 21.7291 17.2474 22.1276L19.3687 20.0063C19.5328 20.1704 19.625 20.3929 19.625 20.625H16.625ZM17.2474 22.1276C17.6459 22.5261 18.1864 22.75 18.75 22.75V19.75C18.9821 19.75 19.2046 19.8422 19.3687 20.0063L17.2474 22.1276ZM18.75 22.75H23.5687V19.75H18.75V22.75ZM22.3556 20.3678C21.3585 21.7389 19.9994 22.8052 18.4305 23.4475L19.567 26.2239C21.6515 25.3706 23.4572 23.9538 24.7819 22.1322L22.3556 20.3678ZM18.4305 23.4475C16.8616 24.0897 15.1448 24.2825 13.4725 24.0041L12.98 26.9634C15.2017 27.3332 17.4826 27.0772 19.567 26.2239L18.4305 23.4475ZM13.4108 23.9951C12.8659 23.9276 12.316 24.0736 11.8764 24.4025L13.6735 26.8046C13.4925 26.9401 13.2661 27.0002 13.0417 26.9724L13.4108 23.9951ZM11.8764 24.4025C11.4367 24.7314 11.1415 25.2177 11.0525 25.7595L14.0128 26.2459C13.9761 26.4689 13.8546 26.6692 13.6735 26.8046L11.8764 24.4025ZM11.0525 25.7595C10.9635 26.3013 11.0876 26.8565 11.3989 27.3088L13.8701 25.6079C13.9983 25.7942 14.0494 26.0228 14.0128 26.2459L11.0525 25.7595ZM11.3989 27.3088C11.7102 27.7611 12.1844 28.0753 12.7223 28.1856L13.3252 25.2469C13.5467 25.2923 13.742 25.4217 13.8701 25.6079L11.3989 27.3088ZM12.7836 28.1969C13.5167 28.3158 14.2581 28.3753 15.0007 28.375L14.9993 25.375C14.418 25.3753 13.8377 25.3286 13.2639 25.2356L12.7836 28.1969ZM15.0025 28.375C17.0398 28.3716 19.0495 27.9037 20.8788 27.0068L19.5582 24.3131C18.1384 25.0092 16.5787 25.3723 14.9975 25.375L15.0025 28.375ZM20.8788 27.0068C22.7081 26.11 24.3088 24.8078 25.5592 23.1994L23.1908 21.3581C22.2203 22.6065 20.9779 23.6171 19.5582 24.3131L20.8788 27.0068ZM22.875 22.2787V26.875H25.875V22.2787H22.875ZM22.875 26.875C22.875 27.4386 23.0989 27.9791 23.4974 28.3776L25.6187 26.2563C25.7828 26.4204 25.875 26.6429 25.875 26.875H22.875ZM23.4974 28.3776C23.8959 28.7761 24.4364 29 25 29V26C25.2321 26 25.4546 26.0922 25.6187 26.2563L23.4974 28.3776ZM25 29C25.5636 29 26.1041 28.7761 26.5026 28.3776L24.3813 26.2563C24.5454 26.0922 24.7679 26 25 26V29ZM26.5026 28.3776C26.9011 27.9791 27.125 27.4386 27.125 26.875H24.125C24.125 26.6429 24.2172 26.4204 24.3813 26.2563L26.5026 28.3776ZM27.125 26.875V20.625H24.125V26.875H27.125ZM27.125 20.625C27.125 20.0614 26.9011 19.5209 26.5026 19.1224L24.3813 21.2437C24.2172 21.0796 24.125 20.8571 24.125 20.625H27.125ZM26.5026 19.1224C26.1041 18.7239 25.5636 18.5 25 18.5V21.5C24.7679 21.5 24.5454 21.4078 24.3813 21.2437L26.5026 19.1224ZM26.875 2.875H20.625V5.875H26.875V2.875ZM20.625 2.875C20.0614 2.875 19.5209 3.09888 19.1224 3.4974L21.2437 5.61872C21.0796 5.78281 20.8571 5.875 20.625 5.875V2.875ZM19.1224 3.4974C18.7239 3.89591 18.5 4.43642 18.5 5H21.5C21.5 5.23206 21.4078 5.45462 21.2437 5.61872L19.1224 3.4974ZM18.5 5V11.25H21.5V5H18.5ZM18.5 11.25C18.5 11.8136 18.7239 12.3541 19.1224 12.7526L21.2437 10.6313C21.4078 10.7954 21.5 11.0179 21.5 11.25H18.5ZM19.1224 12.7526C19.5209 13.1511 20.0614 13.375 20.625 13.375V10.375C20.8571 10.375 21.0796 10.4672 21.2437 10.6313L19.1224 12.7526ZM20.625 13.375C21.1886 13.375 21.7291 13.1511 22.1276 12.7526L20.0063 10.6313C20.1704 10.4672 20.3929 10.375 20.625 10.375V13.375ZM22.1276 12.7526C22.5261 12.3541 22.75 11.8136 22.75 11.25H19.75C19.75 11.0179 19.8422 10.7954 20.0063 10.6313L22.1276 12.7526ZM22.75 11.25V6.425H19.75V11.25H22.75ZM20.375 7.64332C21.4054 8.3834 22.2651 9.33578 22.8963 10.4363L25.4987 8.94373C24.6542 7.47124 23.5038 6.19692 22.125 5.20668L20.375 7.64332ZM22.9004 10.4434C23.704 11.8269 24.1266 13.3986 24.125 14.9985L27.125 15.0015C27.1271 12.8713 26.5645 10.7786 25.4946 8.93659L22.9004 10.4434ZM24.125 15C24.125 15.516 24.0848 16.0294 24.0031 16.5338L26.9644 17.0137C27.0727 16.3456 27.125 15.6715 27.125 15H24.125ZM24.0036 16.5306C23.9584 16.8059 23.9678 17.0874 24.0314 17.359L26.9525 16.6755C26.9787 16.7875 26.9825 16.9035 26.9639 17.0169L24.0036 16.5306ZM24.0314 17.359C24.0949 17.6307 24.2114 17.8872 24.3741 18.1138L26.8112 16.3645C26.8783 16.4579 26.9263 16.5636 26.9525 16.6755L24.0314 17.359ZM24.3741 18.1138C24.5367 18.3405 24.7425 18.5329 24.9795 18.68L26.5617 16.1312C26.6594 16.1918 26.7442 16.2711 26.8112 16.3645L24.3741 18.1138ZM24.9795 18.68C25.2166 18.8272 25.4803 18.9262 25.7556 18.9714L26.2419 16.0111C26.3554 16.0297 26.4641 16.0705 26.5617 16.1312L24.9795 18.68ZM25.7556 18.9714C26.0309 19.0166 26.3124 19.0072 26.584 18.9436L25.9005 16.0225C26.0125 15.9963 26.1285 15.9925 26.2419 16.0111L25.7556 18.9714ZM26.584 18.9436C26.8557 18.8801 27.1122 18.7636 27.3388 18.6009L25.5895 16.1638C25.6829 16.0967 25.7886 16.0487 25.9005 16.0225L26.584 18.9436ZM27.3388 18.6009C27.5655 18.4383 27.7579 18.2325 27.905 17.9955L25.3562 16.4133C25.4168 16.3156 25.4961 16.2308 25.5895 16.1638L27.3388 18.6009ZM27.905 17.9955C28.0522 17.7584 28.1512 17.4947 28.1964 17.2194L25.2361 16.7331C25.2547 16.6196 25.2955 16.511 25.3562 16.4133L27.905 17.9955ZM28.1969 17.2163C28.3157 16.4833 28.3753 15.7419 28.375 14.9994L25.375 15.0006C25.3752 15.5819 25.3286 16.1624 25.2356 16.7362L28.1969 17.2163ZM28.375 15.0013C28.3771 12.6526 27.7573 10.3452 26.5787 8.31354L23.9838 9.81896C24.8966 11.3924 25.3766 13.1796 25.375 14.9987L28.375 15.0013ZM26.5839 8.3226C25.7242 6.81651 24.5743 5.49585 23.2008 4.43703L21.3692 6.81297C22.4285 7.62964 23.3154 8.64826 23.9786 9.8099L26.5839 8.3226ZM22.285 7.125H26.875V4.125H22.285V7.125ZM26.875 7.125C27.4386 7.125 27.9791 6.90112 28.3776 6.5026L26.2563 4.38128C26.4204 4.21719 26.6429 4.125 26.875 4.125V7.125ZM28.3776 6.5026C28.7761 6.10409 29 5.56358 29 5H26C26 4.76794 26.0922 4.54538 26.2563 4.38128L28.3776 6.5026ZM29 5C29 4.43642 28.7761 3.89591 28.3776 3.4974L26.2563 5.61872C26.0922 5.45462 26 5.23206 26 5H29ZM28.3776 3.4974C27.9791 3.09888 27.4386 2.875 26.875 2.875V5.875C26.6429 5.875 26.4204 5.78281 26.2563 5.61872L28.3776 3.4974Z" fill="white" mask="url(#path-1-inside-1_2708_487)"/>
</svg>
