<svg width="32" height="23" viewBox="0 0 32 23" fill="none" xmlns="http://www.w3.org/2000/svg">
<path d="M21.866 15.7488C21.9765 15.8501 22.0651 15.9719 22.1265 16.107C22.1879 16.242 22.2209 16.3877 22.2236 16.5353C22.2263 16.683 22.1986 16.8297 22.1422 16.9668C22.0857 17.1039 22.0016 17.2286 21.8949 17.3337C21.7884 17.442 21.6609 17.5287 21.5198 17.5889C21.3786 17.649 21.2267 17.6815 21.0726 17.6843C20.7709 17.6809 20.4819 17.5655 20.2648 17.3617C19.117 16.3001 17.5934 15.7081 16.0091 15.7081C14.4249 15.7081 12.9013 16.3001 11.7535 17.3617C11.6464 17.472 11.5173 17.56 11.3742 17.6203C11.2311 17.6807 11.0769 17.7123 10.9208 17.7131C10.7648 17.7139 10.6103 17.6839 10.4665 17.625C10.3227 17.5661 10.1928 17.4794 10.0844 17.3703C9.97605 17.2612 9.89159 17.1318 9.83611 16.99C9.78064 16.8482 9.75531 16.697 9.76165 16.5454C9.76799 16.3939 9.80588 16.2451 9.87302 16.1082C9.94016 15.9713 10.0352 15.849 10.1523 15.7488C11.7285 14.2812 13.8267 13.4619 16.0091 13.4619C18.1916 13.4619 20.2898 14.2812 21.866 15.7488ZM16.0091 6.73036C11.9834 6.71325 8.11432 8.24617 5.24749 10.9941C5.13086 11.0952 5.03655 11.2183 4.9703 11.3559C4.90404 11.4935 4.86722 11.6427 4.86205 11.7946C4.85688 11.9464 4.88349 12.0977 4.94025 12.2392C4.997 12.3808 5.08274 12.5096 5.19225 12.618C5.30176 12.7264 5.43276 12.812 5.57732 12.8697C5.72188 12.9274 5.87698 12.9559 6.03322 12.9536C6.18946 12.9512 6.34358 12.9181 6.48625 12.8561C6.62891 12.7941 6.75715 12.7046 6.86318 12.593C9.3096 10.2731 12.5917 8.97454 16.0091 8.97454C19.4266 8.97454 22.7087 10.2731 25.1551 12.593C25.2608 12.6964 25.3868 12.7782 25.5255 12.8336C25.6643 12.889 25.813 12.9169 25.9629 12.9156C26.1918 12.9153 26.4153 12.8487 26.6052 12.7246C26.7951 12.6004 26.9427 12.4241 27.0293 12.2181C27.1159 12.0122 27.1375 11.7859 27.0915 11.5679C27.0455 11.35 26.9338 11.1502 26.7708 10.9941C23.904 8.24617 20.0349 6.71325 16.0091 6.73036ZM31.6756 6.23947C27.4982 2.24106 21.8712 0 16.0091 0C10.1471 0 4.52013 2.24106 0.34272 6.23947C0.12464 6.44964 0.00136393 6.73543 1.12498e-05 7.03397C-0.00134143 7.3325 0.11934 7.61934 0.335507 7.83137C0.551674 8.0434 0.845619 8.16325 1.15268 8.16457C1.45974 8.16588 1.75476 8.04855 1.97284 7.83838C5.71389 4.25289 10.756 2.24288 16.0091 2.24288C21.2623 2.24288 26.3044 4.25289 30.0455 7.83838C30.2626 8.04216 30.5515 8.15756 30.8533 8.16097C31.0803 8.15685 31.3012 8.08851 31.489 7.96428C31.6767 7.84006 31.8231 7.66535 31.9104 7.4615C31.9976 7.25766 32.0218 7.03352 31.9801 6.81649C31.9384 6.59946 31.8326 6.39895 31.6756 6.23947ZM16.0091 19.6339C15.6668 19.6339 15.3321 19.7326 15.0474 19.9175C14.7627 20.1025 14.5408 20.3653 14.4098 20.6729C14.2788 20.9804 14.2445 21.3188 14.3113 21.6453C14.3781 21.9718 14.543 22.2717 14.7851 22.507C15.0272 22.7424 15.3356 22.9027 15.6714 22.9677C16.0072 23.0326 16.3553 22.9993 16.6716 22.8719C16.9879 22.7445 17.2583 22.5288 17.4485 22.252C17.6387 21.9752 17.7402 21.6498 17.7402 21.3169C17.7402 20.8706 17.5579 20.4425 17.2332 20.1268C16.9086 19.8112 16.4683 19.6339 16.0091 19.6339Z" fill="white"/>
</svg>
