<svg width="30" height="30" viewBox="0 0 30 30" fill="none" xmlns="http://www.w3.org/2000/svg">
<path d="M3.01624 6.29749C3.58416 5.72958 4.35356 5.40922 5.1567 5.40625H22.4995C23.3027 5.40922 24.0721 5.72958 24.64 6.29749C25.2079 6.86539 25.5283 7.63476 25.5312 8.43786C25.5312 8.43804 25.5313 8.43821 25.5313 8.43839V21.5616C25.5313 21.5618 25.5312 21.562 25.5312 21.5621C25.5283 22.3652 25.2079 23.1346 24.64 23.7025C24.0721 24.2704 23.3027 24.5908 22.4996 24.5938C22.4995 24.5938 22.4993 24.5938 22.4991 24.5938H5.15714C5.15696 24.5938 5.15679 24.5938 5.15661 24.5938C4.35351 24.5908 3.58414 24.2704 3.01624 23.7025C2.44833 23.1346 2.12797 22.3652 2.125 21.562V8.43795C2.12797 7.63481 2.44833 6.86541 3.01624 6.29749ZM23.0082 22.0707C23.143 21.9359 23.2188 21.7531 23.2188 21.5625V8.4375C23.2188 8.24688 23.143 8.06406 23.0082 7.92927C22.8734 7.79447 22.6906 7.71875 22.5 7.71875H5.15625C4.96563 7.71875 4.78281 7.79447 4.64802 7.92927C4.51323 8.06406 4.4375 8.24688 4.4375 8.4375V21.5625C4.4375 21.7531 4.51323 21.9359 4.64802 22.0707C4.78281 22.2055 4.96563 22.2812 5.15625 22.2812H22.5C22.6906 22.2812 22.8734 22.2055 23.0082 22.0707ZM8.65625 10.7812V19.2188C8.65625 19.5254 8.53443 19.8195 8.31759 20.0363C8.10075 20.2532 7.80666 20.375 7.5 20.375C7.19334 20.375 6.89925 20.2532 6.68241 20.0363C6.46557 19.8195 6.34375 19.5254 6.34375 19.2188V10.7812C6.34375 10.4746 6.46557 10.1805 6.68241 9.96366C6.89925 9.74682 7.19334 9.625 7.5 9.625C7.80666 9.625 8.10075 9.74682 8.31759 9.96366C8.53443 10.1805 8.65625 10.4746 8.65625 10.7812ZM12.875 10.7812V19.2188C12.875 19.5254 12.7532 19.8195 12.5363 20.0363C12.3195 20.2532 12.0254 20.375 11.7188 20.375C11.4121 20.375 11.118 20.2532 10.9012 20.0363C10.6843 19.8195 10.5625 19.5254 10.5625 19.2188V10.7812C10.5625 10.4746 10.6843 10.1805 10.9012 9.96366C11.118 9.74682 11.4121 9.625 11.7188 9.625C12.0254 9.625 12.3195 9.74682 12.5363 9.96366C12.7532 10.1805 12.875 10.4746 12.875 10.7812ZM17.0938 10.7812V19.2188C17.0938 19.5254 16.9719 19.8195 16.7551 20.0363C16.5383 20.2532 16.2442 20.375 15.9375 20.375C15.6308 20.375 15.3367 20.2532 15.1199 20.0363C14.9031 19.8195 14.7812 19.5254 14.7812 19.2188V10.7812C14.7812 10.4746 14.9031 10.1805 15.1199 9.96366C15.3367 9.74682 15.6308 9.625 15.9375 9.625C16.2442 9.625 16.5383 9.74682 16.7551 9.96366C16.9719 10.1805 17.0938 10.4746 17.0938 10.7812ZM29.75 11.25V18.75C29.75 19.0567 29.6282 19.3508 29.4113 19.5676C29.1945 19.7844 28.9004 19.9062 28.5938 19.9062C28.2871 19.9062 27.993 19.7844 27.7762 19.5676C27.5593 19.3508 27.4375 19.0567 27.4375 18.75V11.25C27.4375 10.9433 27.5593 10.6492 27.7762 10.4324C27.993 10.2156 28.2871 10.0938 28.5938 10.0938C28.9004 10.0938 29.1945 10.2156 29.4113 10.4324C29.6282 10.6492 29.75 10.9433 29.75 11.25Z" fill="white" stroke="black" stroke-width="0.5"/>
</svg>
