<svg width="30" height="30" viewBox="0 0 30 30" fill="none" xmlns="http://www.w3.org/2000/svg">
<path d="M6.9264 15.5631L6.92637 15.563C6.62187 15.7874 6.46035 16.092 6.44347 16.514C6.42662 16.9353 6.56519 17.289 6.87249 17.5963C7.16484 17.8886 7.51638 18.0466 7.94402 18.0732C8.36951 18.0988 8.77754 17.9836 9.17736 17.7111C9.99727 17.1502 10.8971 16.7087 11.8754 16.3864L6.9264 15.5631ZM6.9264 15.5631L6.93117 15.5594M6.9264 15.5631L6.93117 15.5594M19.3677 13.5798C20.739 14.0675 21.9815 14.7474 23.0969 15.6195L23.0968 15.6196L23.1049 15.6255C23.4093 15.8498 23.5639 16.1476 23.5726 16.5546C23.5806 16.9652 23.4381 17.3169 23.1275 17.6275C22.8385 17.9165 22.493 18.0636 22.0714 18.0726C21.6353 18.081 21.2319 17.9625 20.8528 17.7104C20.0123 17.1289 19.1018 16.6821 18.1224 16.3702C17.1375 16.0561 16.0961 15.9 15 15.9C13.9027 15.9 12.8605 16.0615 11.8755 16.3863L19.3677 13.5798ZM19.3677 13.5798C18.0009 13.0939 16.5458 12.85 15 12.85M19.3677 13.5798L15 12.85M6.93117 15.5594C8.04658 14.7077 9.28979 14.0425 10.6626 13.5643M6.93117 15.5594L10.6626 13.5643M21.0436 9.45285L21.0436 9.45287C22.9427 10.1533 24.6685 11.1302 26.2193 12.3835C26.573 12.6662 26.9546 12.7925 27.377 12.7753L21.0436 9.45285ZM21.0436 9.45285C19.138 8.75038 17.1226 8.4 15 8.4M21.0436 9.45285L15 8.4M2.62426 12.7753L2.62429 12.7753C3.04562 12.7925 3.42683 12.6663 3.78067 12.3835C5.33151 11.1302 7.05771 10.1533 8.95764 9.45287L2.62426 12.7753ZM2.62426 12.7753C2.19923 12.758 1.85059 12.6056 1.55999 12.315C1.27291 12.0279 1.13125 11.6851 1.13125 11.265M2.62426 12.7753L1.13125 11.265M10.6626 13.5643C12.0296 13.0886 13.4747 12.85 15 12.85M10.6626 13.5643L15 12.85M1.13125 11.265C1.13125 10.8546 1.27632 10.5297 1.57298 10.2645M1.13125 11.265L1.57298 10.2645M1.57298 10.2645C3.39568 8.72926 5.44371 7.5259 7.71895 6.65434C9.98913 5.78555 12.4152 5.35 15 5.35C17.5848 5.35 20.0109 5.78555 22.281 6.65434C24.5563 7.5259 26.6043 8.72926 28.427 10.2645C28.7272 10.5327 28.8763 10.8564 28.8851 11.257C28.893 11.6555 28.7522 12.0028 28.44 12.315C28.1493 12.6057 27.801 12.758 27.377 12.7753L1.57298 10.2645ZM15 8.4C12.8774 8.4 10.8625 8.75038 8.95769 9.45285L15 8.4ZM15 24.65C14.3798 24.65 13.8765 24.4441 13.4662 24.0338C13.0559 23.6235 12.85 23.1202 12.85 22.5C12.85 21.8798 13.0559 21.3765 13.4662 20.9662C13.8765 20.5559 14.3798 20.35 15 20.35C15.6202 20.35 16.1235 20.5559 16.5338 20.9662C16.944 21.3765 17.15 21.8798 17.15 22.5C17.15 23.1202 16.944 23.6235 16.5338 24.0338C16.1235 24.4441 15.6202 24.65 15 24.65Z" fill="white" stroke="black" stroke-width="0.7"/>
</svg>
