<svg width="43" height="43" viewBox="0 0 43 43" fill="none" xmlns="http://www.w3.org/2000/svg">
<path d="M16.9474 22.32L16.9036 22.6927L17.2045 22.917L19.0398 24.2852L17.3329 27.0975L15.2136 26.2696L14.9083 26.1503L14.6308 26.325C14.1409 26.6335 13.6693 26.9239 13.1949 27.1137L12.8523 27.2507L12.7944 27.615L12.4454 29.8084H9.08933L8.75772 27.6198L8.70304 27.2589L8.36643 27.1177C7.85309 26.9025 7.36987 26.6363 6.91686 26.3342L6.63516 26.1464L6.3198 26.2696L4.20153 27.0971L2.51657 24.267L4.31331 22.9153L4.61173 22.6908L4.5681 22.32L4.56397 22.2849C4.52886 21.9869 4.50089 21.7493 4.50089 21.5001C4.50089 21.2397 4.51721 20.9605 4.55018 20.6802L4.59389 20.3087L4.29464 20.0842L2.49696 18.736L4.18361 15.9031L6.30188 16.7305L6.60727 16.8498L6.88472 16.6751C7.37488 16.3665 7.84924 16.0742 8.30983 15.8836L8.64315 15.7457L8.70246 15.3899L9.06881 13.1917H12.4081L12.7398 15.3976L12.7941 15.759L13.1312 15.9003C13.6439 16.1154 14.1171 16.3772 14.5544 16.7011L14.8431 16.915L15.1778 16.7843L17.3134 15.9501L18.9809 18.7508L17.203 20.0842L16.9037 20.3087L16.9474 20.6802L16.9516 20.7153C16.9867 21.0133 17.0146 21.2508 17.0146 21.5001C17.0146 21.7493 16.9867 21.9869 16.9516 22.2849L16.9474 22.32ZM6.8738 21.5001C6.8738 23.6136 8.61499 25.2855 10.7488 25.2855C12.8826 25.2855 14.6238 23.6136 14.6238 21.5001C14.6238 19.3866 12.8826 17.7147 10.7488 17.7147C8.61499 17.7147 6.8738 19.3866 6.8738 21.5001Z" stroke="white" stroke-width="1.3"/>
<path d="M10.9766 10.7785V2.91479C10.9766 1.81022 11.872 0.914795 12.9766 0.914795H32.7638C33.8684 0.914795 34.7638 1.81023 34.7638 2.91479V40.085C34.7638 41.1896 33.8684 42.085 32.7638 42.085H12.9766C11.872 42.085 10.9766 41.1896 10.9766 40.085V31.7925" stroke="white" stroke-width="1.3"/>
</svg>
