<svg width="41" height="35" viewBox="0 0 41 35" fill="none" xmlns="http://www.w3.org/2000/svg">
<path d="M3.32681 30.2178L3.5338 29.8038L3.5339 29.8036L3.53395 29.8035L3.53398 29.8034L3.5341 29.8032L3.53558 29.8003L3.54406 29.7837C3.55198 29.7684 3.5644 29.7446 3.58098 29.7137C3.6142 29.6517 3.6639 29.5613 3.72764 29.452C3.85602 29.2319 4.03694 28.9429 4.25063 28.658C4.46758 28.3687 4.69981 28.1087 4.92619 27.9276C5.16301 27.7381 5.3139 27.6982 5.38281 27.6982C6.18211 27.6982 6.60302 28.241 7.27831 29.2539C7.29681 29.2817 7.31558 29.3099 7.33462 29.3386C7.91679 30.2146 8.75611 31.4775 10.4219 31.4775C12.0876 31.4775 12.927 30.2146 13.5091 29.3386C13.5282 29.3099 13.5469 29.2817 13.5654 29.2539C14.2407 28.241 14.6616 27.6982 15.4609 27.6982C16.2602 27.6982 16.6811 28.241 17.3564 29.2539C17.3749 29.2817 17.3937 29.3099 17.4127 29.3386C17.9949 30.2146 18.8342 31.4775 20.5 31.4775C22.1658 31.4775 23.0051 30.2146 23.5873 29.3386C23.6063 29.3099 23.6251 29.2817 23.6436 29.2539C24.3189 28.241 24.7398 27.6982 25.5391 27.6982C26.3384 27.6982 26.7593 28.241 27.4346 29.2539C27.4531 29.2817 27.4718 29.3099 27.4909 29.3386C28.073 30.2146 28.9124 31.4775 30.5781 31.4775C32.2439 31.4775 33.0832 30.2146 33.6654 29.3386C33.6844 29.3099 33.7032 29.2817 33.7217 29.2539C34.397 28.241 34.8179 27.6982 35.6172 27.6982C35.6861 27.6982 35.837 27.7381 36.0738 27.9276C36.3002 28.1087 36.5324 28.3687 36.7494 28.658C36.9631 28.9429 37.144 29.2319 37.2724 29.452C37.3361 29.5613 37.3858 29.6517 37.419 29.7137C37.4356 29.7446 37.448 29.7684 37.4559 29.7837L37.4644 29.8003L37.4659 29.8032L37.466 29.8034L37.466 29.8035L37.4661 29.8036L37.4662 29.8038L37.6732 30.2178H38.1367C38.7849 30.2178 39.2075 30.2189 39.5105 30.2526C39.7014 30.2738 39.782 30.3028 39.8089 30.3151C39.8212 30.342 39.8503 30.4226 39.8715 30.6135C39.9051 30.9165 39.9062 31.3391 39.9062 31.9873V33.7568H1.09375V31.9873C1.09375 31.3391 1.09486 30.9165 1.12853 30.6135C1.14975 30.4226 1.17875 30.342 1.19104 30.3151C1.21798 30.3028 1.29854 30.2738 1.4895 30.2526C1.79251 30.2189 2.21507 30.2178 2.86328 30.2178H3.32681ZM1.19693 30.3038C1.19694 30.3038 1.19677 30.304 1.19643 30.3045L1.19693 30.3038ZM1.18051 30.3204C1.18002 30.3208 1.17975 30.321 1.17974 30.321L1.18051 30.3204ZM8.46509 24.9385C7.67175 22.1266 7.48272 20.0094 7.58807 18.2535C7.70034 16.3823 8.14746 14.8838 8.62071 13.3063L8.62757 13.2835C9.0971 11.7184 9.59059 10.0735 9.71392 8.01794C9.82547 6.15888 9.63384 3.99402 8.89538 1.24316H12.3787C13.172 4.05503 13.361 6.17219 13.2557 7.9281C13.1434 9.79932 12.6963 11.2978 12.223 12.8753L12.2162 12.8982C11.7467 14.4632 11.2532 16.1082 11.1298 18.1637C11.0183 20.0228 11.2099 22.1876 11.9484 24.9385H8.46509ZM18.5432 24.9385C17.7499 22.1266 17.5608 20.0094 17.6662 18.2535C17.7785 16.3823 18.2256 14.8838 18.6988 13.3063L18.7057 13.2835C19.1752 11.7184 19.6687 10.0735 19.792 8.01794C19.9036 6.15888 19.712 3.99402 18.9735 1.24316H22.4568C23.2501 4.05503 23.4392 6.17219 23.3338 7.9281C23.2215 9.79932 22.7744 11.2978 22.3012 12.8753L22.2943 12.8982C21.8248 14.4632 21.3313 16.1082 21.208 18.1637C21.0964 20.0228 21.288 22.1876 22.0265 24.9385H18.5432ZM28.6213 24.9385C27.828 22.1266 27.639 20.0094 27.7443 18.2535C27.8566 16.3823 28.3037 14.8838 28.777 13.3063L28.7838 13.2835C29.2534 11.7184 29.7468 10.0735 29.8702 8.01794C29.9817 6.15888 29.7901 3.99402 29.0516 1.24316H32.5349C33.3283 4.05503 33.5173 6.17219 33.4119 7.9281C33.2997 9.79932 32.8525 11.2978 32.3793 12.8753L32.3724 12.8982C31.9029 14.4632 31.4094 16.1082 31.2861 18.1637C31.1745 20.0228 31.3662 22.1876 32.1046 24.9385H28.6213Z" fill="white" stroke="#764AF1" stroke-width="1.5"/>
</svg>
